<svg version="1" xmlns="http://www.w3.org/2000/svg" width="1648" height="1648" viewBox="0 0 1236.000000 1236.000000"><path d="M496.8 290.3l-.3 22.3-3.7 7.5c-6.6 13.1-18.1 23.8-37.4 34.8l-9 5.1h-18.5l-7.8-6.8c-27.4-24.2-45.7-30.5-74.6-25.7-4.9.8-10.5 1.8-12.2 2.1l-3.3.5v6.2c.1 8 3 11.8 10.5 13.6 14.4 3.6 36.8 13.8 52 23.8 10 6.6 24.4 18.4 31.8 26.1l4.9 4.9-8.5 7.2c-11.9 10-31.7 23-44.9 29.5-23.2 11.3-42.9 16-73.8 17.6-21.3 1.1-27.9 2.5-40.5 8.5-22.9 11-39.1 35.5-46.1 70.1-1.4 7-2.6 9.4-10.4 21.4-45.5 70.3-78.7 132.2-104.2 194.5-34.1 83.4-52.1 161.8-54.5 236.7l-.6 19.7 3.1 2.9c13 12.2 72.9 19.1 154.5 17.9 49.3-.7 78.9-3.3 110.7-9.7 23.7-4.7 39.9-10.8 43.4-16.3 2.1-3.3.5-23.5-7-88.7l-3.5-30.5 2.6-18.5c8.1-56.1 20-96.2 35.4-119 5.3-7.8 14.1-15.9 21-19.3 11.6-5.7 25.6-4.8 64.1 3.8 12.7 2.9 15.8 3.9 17 5.7 9.9 14.8 25 28.2 40.5 35.8 11.9 5.8 18.5 8.1 32.5 11.1 9.3 2 13.4 2.3 35 2.4 26.7 0 34.8-.8 52.6-5.5 19.4-5.1 34.7-12.8 48.5-24.4 14.8-12.4 28.9-33.5 28.9-43.3 0-9.4 2.2-26.8 4.6-36.2 5.8-22.8 17.8-37.2 36.3-43.3 6.2-2.1 8.8-2.2 42.6-2.6l36-.4 22.4-44.7c12.2-24.5 29.3-58.2 37.8-74.9l15.4-30.2H1126v-35h57v-20h7v-78h-7v-8.8l-.1-8.7-4.8-2.3c-5.6-2.6-18.9-15.9-22-22.1-1.9-3.6-2.1-5.8-2.1-21.6V268h-45.7l-26.4 6.4c-50.1 12.2-84.7 19.4-104.1 21.5-6.6.8-80.4 1.1-230.8 1.1H526v-29h-28.8l-.4 22.3zM650 627c28.4 3.4 46.1 16.5 53.9 39.7 1.9 5.5 2 7.2 1.1 16.1-2 21.6-8.4 39.2-19.5 54-8.2 10.9-16.2 15.8-36 22.2-28.3 9-47.2 10-84.5 4.4-22.5-3.4-38.7-10.3-50.6-21.6C502 730 497 716.9 497 696c0-13 1.9-22.2 6.2-30.3 4.1-7.6 13.8-18.1 21.9-23.6 5.6-3.7 6.8-4.1 12.4-4.1 5.2 0 6.7.4 10.1 2.9 5.2 3.8 13.7 8.1 16 8.1 1.8 0 1.9 1.2 1.9 19.7v19.8l4.9 13.5c12.2 34 22.5 45.6 45 50.5 11.3 2.5 17.1 2.4 23.8-.4l5.8-2.3-10.1-7c-13.3-9.2-23.2-18.7-26.4-25.1-2.5-5.4-5-21.5-4-27.4.2-1.5.7-4.4 1-6.4.4-2.6 2.6-6.1 7.1-11.5 11.5-13.8 21.5-32.1 23-42.2.7-4.9.6-4.8 14.4-3.2z"/></svg>